<svg xmlns="http://www.w3.org/2000/svg" width="384" height="960" viewBox="0 0 384 960" role="img" aria-label="FocusWhale placeholder pet sprite atlas">
  <defs>
    <symbol id="whale" viewBox="0 0 96 96">
      <ellipse cx="46" cy="52" rx="30" ry="20" fill="currentColor"/>
      <path d="M70 50 L90 35 L84 55 L90 73 Z" fill="currentColor"/>
      <path d="M34 69 C43 80 57 80 67 68" fill="none" stroke="#2f4858" stroke-width="4" stroke-linecap="round"/>
      <circle cx="36" cy="45" r="4" fill="#20323b"/>
      <path d="M22 57 C12 58 9 52 7 47 C16 48 24 45 29 38" fill="currentColor" opacity="0.82"/>
      <circle cx="30" cy="31" r="3" fill="#f7fff7" opacity="0.86"/>
    </symbol>
  </defs>
  <rect width="384" height="960" fill="transparent"/>
  <g transform="translate(0 0)"><use href="#whale" color="#85c7c0" transform="translate(14 21) scale(0.62)"/><circle cx="70" cy="24" r="3" fill="#8fd7ff"/></g>
  <g transform="translate(96 0)"><use href="#whale" color="#85c7c0" transform="translate(15 19) scale(0.62)"/><circle cx="70" cy="22" r="3" fill="#8fd7ff"/></g>
  <g transform="translate(192 0)"><use href="#whale" color="#85c7c0" transform="translate(14 21) scale(0.62)"/><circle cx="70" cy="24" r="3" fill="#8fd7ff"/></g>
  <g transform="translate(288 0)"><use href="#whale" color="#85c7c0" transform="translate(13 23) scale(0.62)"/><circle cx="70" cy="26" r="3" fill="#8fd7ff"/></g>
  <g transform="translate(0 96)"><use href="#whale" color="#6ab7c9" transform="translate(11 19) scale(0.70)"/><circle cx="73" cy="23" r="3" fill="#8fd7ff"/></g>
  <g transform="translate(96 96)"><use href="#whale" color="#6ab7c9" transform="translate(12 17) scale(0.70)"/><circle cx="73" cy="21" r="3" fill="#8fd7ff"/></g>
  <g transform="translate(192 96)"><use href="#whale" color="#6ab7c9" transform="translate(11 19) scale(0.70)"/><circle cx="73" cy="23" r="3" fill="#8fd7ff"/></g>
  <g transform="translate(288 96)"><use href="#whale" color="#6ab7c9" transform="translate(10 21) scale(0.70)"/><circle cx="73" cy="25" r="3" fill="#8fd7ff"/></g>
  <g transform="translate(0 192)"><use href="#whale" color="#4f9acb" transform="translate(8 17) scale(0.78)"/><circle cx="76" cy="22" r="4" fill="#8fd7ff"/></g>
  <g transform="translate(96 192)"><use href="#whale" color="#4f9acb" transform="translate(9 15) scale(0.78)"/><circle cx="76" cy="20" r="4" fill="#8fd7ff"/></g>
  <g transform="translate(192 192)"><use href="#whale" color="#4f9acb" transform="translate(8 17) scale(0.78)"/><circle cx="76" cy="22" r="4" fill="#8fd7ff"/></g>
  <g transform="translate(288 192)"><use href="#whale" color="#4f9acb" transform="translate(7 19) scale(0.78)"/><circle cx="76" cy="24" r="4" fill="#8fd7ff"/></g>
  <g transform="translate(0 288)"><use href="#whale" color="#476dc2" transform="translate(5 15) scale(0.86)"/><circle cx="79" cy="21" r="4" fill="#8fd7ff"/><circle cx="22" cy="76" r="3" fill="#b8f2e6"/></g>
  <g transform="translate(96 288)"><use href="#whale" color="#476dc2" transform="translate(6 13) scale(0.86)"/><circle cx="79" cy="19" r="4" fill="#8fd7ff"/><circle cx="22" cy="74" r="3" fill="#b8f2e6"/></g>
  <g transform="translate(192 288)"><use href="#whale" color="#476dc2" transform="translate(5 15) scale(0.86)"/><circle cx="79" cy="21" r="4" fill="#8fd7ff"/><circle cx="22" cy="76" r="3" fill="#b8f2e6"/></g>
  <g transform="translate(288 288)"><use href="#whale" color="#476dc2" transform="translate(4 17) scale(0.86)"/><circle cx="79" cy="23" r="4" fill="#8fd7ff"/><circle cx="22" cy="78" r="3" fill="#b8f2e6"/></g>
  <g transform="translate(0 384)"><use href="#whale" color="#324ea8" transform="translate(2 13) scale(0.94)"/><circle cx="81" cy="20" r="5" fill="#8fd7ff"/><circle cx="23" cy="79" r="3" fill="#ffe066"/></g>
  <g transform="translate(96 384)"><use href="#whale" color="#324ea8" transform="translate(3 11) scale(0.94)"/><circle cx="81" cy="18" r="5" fill="#8fd7ff"/><circle cx="23" cy="77" r="3" fill="#ffe066"/></g>
  <g transform="translate(192 384)"><use href="#whale" color="#324ea8" transform="translate(2 13) scale(0.94)"/><circle cx="81" cy="20" r="5" fill="#8fd7ff"/><circle cx="23" cy="79" r="3" fill="#ffe066"/></g>
  <g transform="translate(288 384)"><use href="#whale" color="#324ea8" transform="translate(1 15) scale(0.94)"/><circle cx="81" cy="22" r="5" fill="#8fd7ff"/><circle cx="23" cy="81" r="3" fill="#ffe066"/></g>
  <g transform="translate(0 480)"><use href="#whale" color="#8ed9a7" transform="translate(14 19) scale(0.62)"/><path d="M58 22 L63 14 L68 22" fill="#ffd166"/></g>
  <g transform="translate(96 480)"><use href="#whale" color="#8ed9a7" transform="translate(15 17) scale(0.62)"/><path d="M58 20 L63 12 L68 20" fill="#ffd166"/></g>
  <g transform="translate(192 480)"><use href="#whale" color="#8ed9a7" transform="translate(14 19) scale(0.62)"/><path d="M58 22 L63 14 L68 22" fill="#ffd166"/></g>
  <g transform="translate(288 480)"><use href="#whale" color="#8ed9a7" transform="translate(13 21) scale(0.62)"/><path d="M58 24 L63 16 L68 24" fill="#ffd166"/></g>
  <g transform="translate(0 576)"><use href="#whale" color="#78cdd7" transform="translate(11 17) scale(0.70)"/><path d="M62 21 L67 13 L72 21" fill="#ffd166"/></g>
  <g transform="translate(96 576)"><use href="#whale" color="#78cdd7" transform="translate(12 15) scale(0.70)"/><path d="M62 19 L67 11 L72 19" fill="#ffd166"/></g>
  <g transform="translate(192 576)"><use href="#whale" color="#78cdd7" transform="translate(11 17) scale(0.70)"/><path d="M62 21 L67 13 L72 21" fill="#ffd166"/></g>
  <g transform="translate(288 576)"><use href="#whale" color="#78cdd7" transform="translate(10 19) scale(0.70)"/><path d="M62 23 L67 15 L72 23" fill="#ffd166"/></g>
  <g transform="translate(0 672)"><use href="#whale" color="#5aa9e6" transform="translate(8 15) scale(0.78)"/><path d="M66 20 L71 12 L76 20" fill="#ffd166"/></g>
  <g transform="translate(96 672)"><use href="#whale" color="#5aa9e6" transform="translate(9 13) scale(0.78)"/><path d="M66 18 L71 10 L76 18" fill="#ffd166"/></g>
  <g transform="translate(192 672)"><use href="#whale" color="#5aa9e6" transform="translate(8 15) scale(0.78)"/><path d="M66 20 L71 12 L76 20" fill="#ffd166"/></g>
  <g transform="translate(288 672)"><use href="#whale" color="#5aa9e6" transform="translate(7 17) scale(0.78)"/><path d="M66 22 L71 14 L76 22" fill="#ffd166"/></g>
  <g transform="translate(0 768)"><use href="#whale" color="#5771c8" transform="translate(5 13) scale(0.86)"/><path d="M70 19 L75 11 L80 19" fill="#ffd166"/><circle cx="21" cy="77" r="3" fill="#b8f2e6"/></g>
  <g transform="translate(96 768)"><use href="#whale" color="#5771c8" transform="translate(6 11) scale(0.86)"/><path d="M70 17 L75 9 L80 17" fill="#ffd166"/><circle cx="21" cy="75" r="3" fill="#b8f2e6"/></g>
  <g transform="translate(192 768)"><use href="#whale" color="#5771c8" transform="translate(5 13) scale(0.86)"/><path d="M70 19 L75 11 L80 19" fill="#ffd166"/><circle cx="21" cy="77" r="3" fill="#b8f2e6"/></g>
  <g transform="translate(288 768)"><use href="#whale" color="#5771c8" transform="translate(4 15) scale(0.86)"/><path d="M70 21 L75 13 L80 21" fill="#ffd166"/><circle cx="21" cy="79" r="3" fill="#b8f2e6"/></g>
  <g transform="translate(0 864)"><use href="#whale" color="#4059ad" transform="translate(2 11) scale(0.94)"/><path d="M73 18 L78 10 L83 18" fill="#ffd166"/><circle cx="23" cy="80" r="3" fill="#ffe066"/></g>
  <g transform="translate(96 864)"><use href="#whale" color="#4059ad" transform="translate(3 9) scale(0.94)"/><path d="M73 16 L78 8 L83 16" fill="#ffd166"/><circle cx="23" cy="78" r="3" fill="#ffe066"/></g>
  <g transform="translate(192 864)"><use href="#whale" color="#4059ad" transform="translate(2 11) scale(0.94)"/><path d="M73 18 L78 10 L83 18" fill="#ffd166"/><circle cx="23" cy="80" r="3" fill="#ffe066"/></g>
  <g transform="translate(288 864)"><use href="#whale" color="#4059ad" transform="translate(1 13) scale(0.94)"/><path d="M73 20 L78 12 L83 20" fill="#ffd166"/><circle cx="23" cy="82" r="3" fill="#ffe066"/></g>
</svg>
